<svg width="160" height="160" viewBox="0 0 160 160" fill="none" xmlns="http://www.w3.org/2000/svg">
<path d="M62.1262 157.978C47.9735 154.734 34.9706 147.699 24.5114 137.628C14.0521 127.557 6.53087 114.83 2.75397 100.81C-1.02293 86.7901 -0.913083 72.0067 3.07173 58.0445C7.05655 44.0824 14.7661 31.468 25.3738 21.5536L80 80L62.1262 157.978Z" fill="#6D3CB7"/>
<path d="M26.4809 20.5382C40.7318 7.71156 59.1154 0.429637 78.2841 0.0184034L80 80L26.4809 20.5382Z" fill="#939FAD"/>
<path d="M80 0C91.1792 1.33311e-07 102.234 2.34301 112.452 6.87793C122.671 11.4129 131.825 18.039 139.325 26.3291C146.825 34.6192 152.504 44.3891 155.996 55.0089C159.489 65.6286 160.716 76.8624 159.6 87.9858C158.484 99.1092 155.05 109.875 149.517 119.59C143.985 129.304 136.478 137.751 127.481 144.386C118.484 151.021 108.195 155.697 97.2802 158.111C86.3649 160.526 75.0646 160.626 64.1082 158.406L80 80L80 0Z" fill="#FFC109"/>
<circle cx="80" cy="80" r="70" fill="white"/>
</svg>
