<svg width="36" height="36" viewBox="0 0 36 36" fill="none" xmlns="http://www.w3.org/2000/svg">
<g clip-path="url(#clip0_1109_255)">
<path d="M4.5271 29.385L17.0254 36V33.1425L4.5271 26.5275V29.385Z" fill="white"/>
<path d="M4.5271 11.8575L17.0254 18.4725V15.615L4.5271 9V11.8575Z" fill="white"/>
<path d="M17.0254 22.5V20.25L4.5 13.5V24.8625L17.0254 31.5V29.25L7.21114 23.9175V17.1675L17.0254 22.5Z" fill="white"/>
<path d="M31.6385 6.75L18.0828 0L4.5 6.75L18.0828 13.5L31.6385 6.75Z" fill="white"/>
<path d="M31.6385 29.385V26.5275L19.113 33.1425V36L31.6385 29.385Z" fill="white"/>
<path d="M31.6385 11.8575V9L19.113 15.615V18.4725L31.6385 11.8575Z" fill="white"/>
<path d="M29.063 14.895V20.61L27.2194 19.89L25.3758 19.1925L23.478 21.8025L21.6345 24.4575V18.765L18.9233 20.0925V31.5L25.3758 22.5L31.6115 24.9075V13.5L29.063 14.895Z" fill="white"/>
</g>
<defs>
<clipPath id="clip0_1109_255">
<rect width="36" height="36" fill="white"/>
</clipPath>
</defs>
</svg>
