<svg width="17" height="18" viewBox="0 0 17 18" fill="none" xmlns="http://www.w3.org/2000/svg">
<path d="M11.838 7.92857C11.838 10.4096 9.81906 12.4286 7.33803 12.4286C4.857 12.4286 2.83803 10.4096 2.83803 7.92857C2.83803 5.44754 4.857 3.42857 7.33803 3.42857C9.81906 3.42857 11.838 5.44754 11.838 7.92857ZM16.9809 16.2857C16.9809 15.9442 16.8403 15.6127 16.6092 15.3817L13.1639 11.9364C13.9775 10.7612 14.4095 9.35491 14.4095 7.92857C14.4095 4.0212 11.2454 0.857142 7.33803 0.857142C3.43066 0.857142 0.266602 4.0212 0.266602 7.92857C0.266602 11.8359 3.43066 15 7.33803 15C8.76437 15 10.1706 14.5681 11.3458 13.7545L14.7912 17.1897C15.0222 17.4308 15.3537 17.5714 15.6952 17.5714C16.3983 17.5714 16.9809 16.9888 16.9809 16.2857Z" fill="#364C66"/>
</svg>
