<svg width="15" height="15" viewBox="0 0 15 15" fill="none" xmlns="http://www.w3.org/2000/svg">
<path d="M14.8709 6.84451L7.49976 0L0.128909 6.84451C0.0250796 6.94115 0.0189115 7.10383 0.115545 7.20792C0.211664 7.31174 0.374861 7.31766 0.47869 7.22128L1.58869 6.19044V7.0329V15H5.70074V10.3739C5.70074 9.38037 6.50619 8.57492 7.49976 8.57492C8.49334 8.57492 9.29879 9.38037 9.29879 10.3739V15H13.4108V7.0329V6.19044L14.5208 7.22128C14.5702 7.26728 14.6331 7.2899 14.6959 7.2899C14.765 7.2899 14.8336 7.2624 14.884 7.20792C14.9809 7.10383 14.9747 6.94115 14.8709 6.84451Z" fill="#364C66"/>
</svg>
